# xmcd CD database file
#
# Track frame offsets:
#	150
#	17042
#	27569
#	44223
#	58350
#	69787
#	97209
#	108225
#	131395
#	145984
#
# Disc length: 2123 seconds
#
# Revision: 0
# Processed by: cddbd v1.5.2PL0 Copyright (c) Steve Scherf et al.
# Submitted via: CDex 1.70beta2
#
DISCID=9508490a
DTITLE=Jasmin Bailey - A Touch of Standards
DYEAR=2007
DGENRE=Jazz
TTITLE0=ain't no sunshine
TTITLE1=what is this thing called love
TTITLE2=blue moon
TTITLE3=the boy from ipanema
TTITLE4=hit the road jack
TTITLE5=in a sentimental mood/ tenderly
TTITLE6=un jour comment notre
TTITLE7=my funny valetine
TTITLE8=moondust
TTITLE9=at last
EXTD=YEAR: 2007
EXTT0=
EXTT1=
EXTT2=
EXTT3=
EXTT4=
EXTT5=
EXTT6=
EXTT7=
EXTT8=
EXTT9=
PLAYORDER=
